<mxfile host="app.diagrams.net" agent="Mozilla/5.0 (X11; Linux x86_64) AppleWebKit/537.36 (KHTML, like Gecko) Chrome/139.0.0.0 Safari/537.36" version="28.2.5">
  <diagram id="EkzhuTh-AP_JKF-Qpcr1" name="Page-1">
    <mxGraphModel dx="1003" dy="1749" grid="1" gridSize="10" guides="1" tooltips="1" connect="0" arrows="1" fold="1" page="1" pageScale="1" pageWidth="827" pageHeight="1169" math="0" shadow="0">
      <root>
        <mxCell id="0" />
        <mxCell id="1" parent="0" />
        <mxCell id="cDUJwSO_XctsjpnYy4wp-40" value="" style="edgeStyle=orthogonalEdgeStyle;rounded=0;orthogonalLoop=1;jettySize=auto;html=1;" edge="1" parent="1" source="cDUJwSO_XctsjpnYy4wp-6" target="cDUJwSO_XctsjpnYy4wp-21">
          <mxGeometry relative="1" as="geometry">
            <mxPoint x="178.125" y="-900" as="targetPoint" />
          </mxGeometry>
        </mxCell>
        <mxCell id="cDUJwSO_XctsjpnYy4wp-6" value="Admin" style="shape=umlActor;verticalLabelPosition=bottom;verticalAlign=top;html=1;outlineConnect=0;" vertex="1" parent="1">
          <mxGeometry x="160" y="-955" width="36.25" height="60" as="geometry" />
        </mxCell>
        <mxCell id="cDUJwSO_XctsjpnYy4wp-7" value="" style="rounded=1;whiteSpace=wrap;html=1;absoluteArcSize=1;arcSize=14;strokeWidth=2;fillColor=none;" vertex="1" parent="1">
          <mxGeometry x="240" y="-1000" width="320" height="540" as="geometry" />
        </mxCell>
        <mxCell id="cDUJwSO_XctsjpnYy4wp-8" value="Operator" style="shape=umlActor;verticalLabelPosition=bottom;verticalAlign=top;html=1;outlineConnect=0;" vertex="1" parent="1">
          <mxGeometry x="148.13" y="-800" width="51.87" height="70" as="geometry" />
        </mxCell>
        <mxCell id="cDUJwSO_XctsjpnYy4wp-21" value="Manage Customers" style="ellipse;whiteSpace=wrap;html=1;" vertex="1" parent="1">
          <mxGeometry x="331.87" y="-950" width="117.5" height="50" as="geometry" />
        </mxCell>
        <mxCell id="cDUJwSO_XctsjpnYy4wp-24" value="View Reports" style="ellipse;whiteSpace=wrap;html=1;" vertex="1" parent="1">
          <mxGeometry x="335.63" y="-890" width="120" height="50" as="geometry" />
        </mxCell>
        <mxCell id="cDUJwSO_XctsjpnYy4wp-25" value="Generate invoices" style="shape=ellipse;html=1;dashed=0;whiteSpace=wrap;perimeter=ellipsePerimeter;" vertex="1" parent="1">
          <mxGeometry x="338.75" y="-830" width="115" height="50" as="geometry" />
        </mxCell>
        <mxCell id="cDUJwSO_XctsjpnYy4wp-29" value="Input meter reading" style="ellipse;whiteSpace=wrap;html=1;" vertex="1" parent="1">
          <mxGeometry x="341.87" y="-760" width="101.25" height="40" as="geometry" />
        </mxCell>
        <mxCell id="cDUJwSO_XctsjpnYy4wp-30" value="Calculate Bill" style="ellipse;whiteSpace=wrap;html=1;" vertex="1" parent="1">
          <mxGeometry x="340.62" y="-707" width="101.25" height="44" as="geometry" />
        </mxCell>
        <mxCell id="cDUJwSO_XctsjpnYy4wp-31" value="Update Payment Status" style="ellipse;whiteSpace=wrap;html=1;" vertex="1" parent="1">
          <mxGeometry x="335.63" y="-650" width="113.74" height="50" as="geometry" />
        </mxCell>
        <mxCell id="cDUJwSO_XctsjpnYy4wp-32" value="View Bill" style="ellipse;whiteSpace=wrap;html=1;" vertex="1" parent="1">
          <mxGeometry x="349.37" y="-590" width="90.63" height="50" as="geometry" />
        </mxCell>
        <mxCell id="cDUJwSO_XctsjpnYy4wp-33" value="Pay Bill Online" style="ellipse;whiteSpace=wrap;html=1;" vertex="1" parent="1">
          <mxGeometry x="340.62" y="-530" width="103.75" height="50" as="geometry" />
        </mxCell>
        <mxCell id="cDUJwSO_XctsjpnYy4wp-36" value="System" style="shape=umlActor;verticalLabelPosition=bottom;verticalAlign=top;html=1;outlineConnect=0;" vertex="1" parent="1">
          <mxGeometry x="153.13" y="-580" width="43.12" height="70" as="geometry" />
        </mxCell>
        <mxCell id="cDUJwSO_XctsjpnYy4wp-49" value="" style="endArrow=classic;html=1;rounded=0;entryX=0.055;entryY=0.611;entryDx=0;entryDy=0;entryPerimeter=0;" edge="1" parent="1" source="cDUJwSO_XctsjpnYy4wp-6" target="cDUJwSO_XctsjpnYy4wp-24">
          <mxGeometry width="50" height="50" relative="1" as="geometry">
            <mxPoint x="250" y="-860" as="sourcePoint" />
            <mxPoint x="300" y="-910" as="targetPoint" />
          </mxGeometry>
        </mxCell>
        <mxCell id="cDUJwSO_XctsjpnYy4wp-50" value="" style="endArrow=classic;html=1;rounded=0;" edge="1" parent="1" source="cDUJwSO_XctsjpnYy4wp-6">
          <mxGeometry width="50" height="50" relative="1" as="geometry">
            <mxPoint x="290" y="-760" as="sourcePoint" />
            <mxPoint x="340" y="-810" as="targetPoint" />
          </mxGeometry>
        </mxCell>
        <mxCell id="cDUJwSO_XctsjpnYy4wp-51" value="" style="endArrow=classic;html=1;rounded=0;entryX=0.051;entryY=0.595;entryDx=0;entryDy=0;entryPerimeter=0;" edge="1" parent="1" source="cDUJwSO_XctsjpnYy4wp-8" target="cDUJwSO_XctsjpnYy4wp-29">
          <mxGeometry width="50" height="50" relative="1" as="geometry">
            <mxPoint x="290" y="-690" as="sourcePoint" />
            <mxPoint x="340" y="-740" as="targetPoint" />
          </mxGeometry>
        </mxCell>
        <mxCell id="cDUJwSO_XctsjpnYy4wp-52" value="" style="endArrow=classic;html=1;rounded=0;" edge="1" parent="1" source="cDUJwSO_XctsjpnYy4wp-8">
          <mxGeometry width="50" height="50" relative="1" as="geometry">
            <mxPoint x="290" y="-630" as="sourcePoint" />
            <mxPoint x="340" y="-680" as="targetPoint" />
          </mxGeometry>
        </mxCell>
        <mxCell id="cDUJwSO_XctsjpnYy4wp-54" value="" style="endArrow=classic;html=1;rounded=0;" edge="1" parent="1" source="cDUJwSO_XctsjpnYy4wp-8">
          <mxGeometry width="50" height="50" relative="1" as="geometry">
            <mxPoint x="290" y="-580" as="sourcePoint" />
            <mxPoint x="340" y="-630" as="targetPoint" />
          </mxGeometry>
        </mxCell>
        <mxCell id="cDUJwSO_XctsjpnYy4wp-55" value="" style="endArrow=classic;html=1;rounded=0;" edge="1" parent="1" source="cDUJwSO_XctsjpnYy4wp-36">
          <mxGeometry width="50" height="50" relative="1" as="geometry">
            <mxPoint x="300" y="-510" as="sourcePoint" />
            <mxPoint x="350" y="-560" as="targetPoint" />
          </mxGeometry>
        </mxCell>
        <mxCell id="cDUJwSO_XctsjpnYy4wp-57" value="" style="endArrow=classic;html=1;rounded=0;" edge="1" parent="1" source="cDUJwSO_XctsjpnYy4wp-36">
          <mxGeometry width="50" height="50" relative="1" as="geometry">
            <mxPoint x="290" y="-450" as="sourcePoint" />
            <mxPoint x="340" y="-500" as="targetPoint" />
          </mxGeometry>
        </mxCell>
      </root>
    </mxGraphModel>
  </diagram>
</mxfile>
